name Walk10.mot
datacolumns 19
datarows 15
range 1.08000000 1.09400000
endheader

                time	   L_ground_force_vx	   L_ground_force_vy	   L_ground_force_vz	   L_ground_force_px	   L_ground_force_py	   L_ground_force_pz	   R_ground_force_vx	   R_ground_force_vy	   R_ground_force_vz	   R_ground_force_px	   R_ground_force_py	   R_ground_force_pz	   L_ground_torque_x	   L_ground_torque_y	   L_ground_torque_z	   R_ground_torque_x	   R_ground_torque_y	   R_ground_torque_z	
          1.08000000	         -4.69126159	        128.54937834	        -10.56489760	         -0.12454518	          0.00000000	          0.00458754	          0.00000001	         -0.00000002	          0.00000000	          0.00000000	          0.00000000	          0.00000000	          0.00000000	          0.19848719	          0.00000000	          0.00000000	         -0.00000000	          0.00000000	
          1.08100000	         -5.52158488	        137.62753866	        -11.22351195	         -0.13167459	          0.00000000	          0.00486693	          0.00000001	         -0.00000001	          0.00000000	          0.00000000	          0.00000000	          0.00000000	          0.00000000	          0.21958020	          0.00000000	          0.00000000	         -0.00000000	          0.00000000	
          1.08200000	         -6.40626235	        146.98089811	        -11.89697598	         -0.13892271	          0.00000000	          0.00515219	          0.00000001	          0.00000000	          0.00000000	          0.00000000	          0.00000000	          0.00000000	          0.00000000	          0.24172644	          0.00000000	          0.00000000	         -0.00000000	          0.00000000	
          1.08300000	         -7.34669123	        156.59640105	        -12.58388825	         -0.14627062	          0.00000000	          0.00544268	          0.00000002	          0.00000002	          0.00000000	          0.00000000	          0.00000000	          0.00000000	          0.00000000	          0.26493232	          0.00000000	          0.00000000	         -0.00000000	          0.00000000	
          1.08400000	         -8.34416832	        166.45869601	        -13.28266154	         -0.15369724	          0.00000000	          0.00573768	          0.00000002	          0.00000003	          0.00000001	          0.00000000	          0.00000000	          0.00000000	          0.00000000	          0.28920045	          0.00000000	          0.00000000	         -0.00000000	          0.00000000	
          1.08500000	         -9.39987536	        176.54998576	        -13.99151219	         -0.16117924	          0.00000000	          0.00603640	          0.00000002	          0.00000005	          0.00000001	          0.00000000	          0.00000000	          0.00000000	          0.00000000	          0.31452933	          0.00000000	          0.00000000	         -0.00000000	          0.00000000	
          1.08600000	        -10.51486337	        186.84987356	        -14.70844912	         -0.16869084	          0.00000000	          0.00633794	          0.00000002	          0.00000006	          0.00000001	          0.00000000	          0.00000000	          0.00000000	          0.00000000	          0.34091292	          0.00000000	          0.00000000	         -0.00000000	          0.00000000	
          1.08700000	        -11.69003424	        197.33523473	        -15.43126482	         -0.17620411	          0.00000000	          0.00664134	          0.00000002	          0.00000008	          0.00000001	          0.00000000	          0.00000000	          0.00000000	          0.00000000	          0.36834041	          0.00000000	          0.00000000	         -0.00000000	          0.00000000	
          1.08800000	        -12.92611436	        207.98020806	        -16.15753319	         -0.18369020	          0.00000000	          0.00694552	          0.00000002	          0.00000010	          0.00000001	          0.00000000	          0.00000000	          0.00000000	          0.00000000	          0.39679649	          0.00000000	          0.00000000	         -0.00000000	          0.00000000	
          1.08900000	        -14.22362053	        218.75640285	        -16.88461713	         -0.19112120	          0.00000000	          0.00724938	          0.00000002	          0.00000012	          0.00000001	          0.00000000	          0.00000000	          0.00000000	          0.00000000	          0.42626225	          0.00000000	          0.00000000	         -0.00000000	          0.00000000	
          1.09000000	        -15.58282473	        229.63334385	        -17.60968186	         -0.19847147	          0.00000000	          0.00755178	          0.00000002	          0.00000014	          0.00000001	          0.00000000	          0.00000000	          0.00000000	          0.00000000	          0.45671623	          0.00000000	          0.00000000	         -0.00000000	          0.00000000	
          1.09100000	        -17.00372217	        240.57914511	        -18.32971108	         -0.20571782	          0.00000000	          0.00785161	          0.00000002	          0.00000016	          0.00000002	          0.00000000	          0.00000000	          0.00000000	          0.00000000	          0.48813538	          0.00000000	          0.00000000	         -0.00000000	          0.00000000	
          1.09200000	        -18.48600044	        251.56139289	        -19.04152632	         -0.21283938	          0.00000000	          0.00814777	          0.00000002	          0.00000019	          0.00000002	          0.00000000	          0.00000000	          0.00000000	          0.00000000	          0.52049559	          0.00000000	          0.00000000	         -0.00000000	          0.00000000	
          1.09300000	        -20.02900788	        262.54815761	        -19.74181037	         -0.21981756	          0.00000000	          0.00843924	          0.00000002	          0.00000022	          0.00000002	          0.00000000	          0.00000000	          0.00000000	          0.00000000	          0.55377198	          0.00000000	          0.00000000	         -0.00000000	          0.00000000	
          1.09400000	        -21.63172152	        273.50899101	        -20.42713472	         -0.22663584	          0.00000000	          0.00872502	          0.00000002	          0.00000024	          0.00000002	          0.00000000	          0.00000000	          0.00000000	          0.00000000	          0.58793865	          0.00000000	          0.00000000	         -0.00000001	          0.00000000	
